<?xml version="1.0" standalone="no"?><!DOCTYPE svg PUBLIC "-//W3C//DTD SVG 1.1//EN" "http://www.w3.org/Graphics/SVG/1.1/DTD/svg11.dtd"><svg t="1566403965174" class="icon" viewBox="0 0 1024 1024" version="1.1" xmlns="http://www.w3.org/2000/svg" p-id="1917" xmlns:xlink="http://www.w3.org/1999/xlink" width="200" height="200"><defs><style type="text/css"></style></defs><path d="M169.871032 1023.71487h684.04292A43.969393 43.969393 0 0 0 897.883345 979.745477V43.969393A43.969393 43.969393 0 0 0 853.913952 0H169.871032A43.969393 43.969393 0 0 0 125.901639 43.969393v935.776084A43.969393 43.969393 0 0 0 169.871032 1023.71487z" fill="#3888FF" p-id="1918"></path><path d="M826.391126 1023.71487H545.456914V134.257688h318.862009v855.89276a33.564422 33.564422 0 0 1-37.927797 33.564422z" fill="#56A4FF" p-id="1919"></path><path d="M209.812694 1023.71487H176.248272c-25.173316 0-50.346633-8.391105-50.346633-50.346633V50.346633C125.901639 8.391105 151.074956 0 176.248272 0h33.564422z" fill="#1763D4" p-id="1920"></path><path d="M864.318923 134.257688H195.715637C176.248272 134.257688 159.466061 109.420016 159.466061 83.911055s16.782211-49.507522 36.249576-49.507522L864.318923 33.564422z" fill="#FFFFFF" p-id="1921"></path><path d="M293.723749 486.684119h503.46633v-50.346633H293.723749z m100.693266 167.82211h302.079798v-50.346633H394.417015z" fill="#FFFFFF" p-id="1922"></path><path d="M681.225001 165.304778H679.714602v184.604321l81.058079-54.710008 83.911055 54.710008V138.788885a41.116417 41.116417 0 0 0 0-4.531197h-163.458735z" fill="#3888FF" p-id="1923"></path><path d="M791.819771 68.639243V67.128844h-3.524264a39.102552 39.102552 0 0 0-14.432701 0H612.585758v50.346633h39.606018v191.652849l80.890257-58.402094 83.911055 58.402094V99.350689a33.564422 33.564422 0 0 0-25.173317-30.711446z" fill="#FFA926" p-id="1924"></path><path d="M651.68831 117.475477V98.175934a36.753042 36.753042 0 0 0-72.666974 0V117.475477z" fill="#CB8212" p-id="1925"></path></svg>