<?xml version="1.0" encoding="utf-8"?>
<!-- Generator: Adobe Illustrator 22.0.0, SVG Export Plug-In . SVG Version: 6.00 Build 0)  -->
<svg version="1.1" id="图层_1" xmlns="http://www.w3.org/2000/svg" xmlns:xlink="http://www.w3.org/1999/xlink" x="0px" y="0px"
	 viewBox="0 0 595.3 841.9" style="enable-background:new 0 0 595.3 841.9;" xml:space="preserve">
<style type="text/css">
	.st0{display:none;}
	.st1{fill:none;stroke:#000000;stroke-width:40;stroke-miterlimit:10;}
	.st2{fill:#E1EDF6;}
	.st3{fill:#F5D9CE;}
	.st4{fill:#704B22;}
	.st5{fill:#3DA872;}
	.st6{fill:#E6E6E5;}
	.st7{fill:#EEC5B4;}
</style>
<path class="st0" d="M397.3,431.2L250.4,573.2l-58.8-54.7c-10.3-10.2-25.7-10.2-36,0c-0.3,0.2-0.5,0.5-0.8,0.8
	c-4.6,4.8-7,11.1-6.9,17.7c0.2,6.6,2.9,12.8,7.7,17.4l82.2,76.9c5.2,5.1,10.3,5.1,15.4,5.1c5.2,0,10.3,0,15.4-5.1l164.5-164.1
	c10.3-10.2,10.3-25.6,0-35.9C423,420.9,407.6,420.9,397.3,431.2L397.3,431.2z M397.3,431.2"/>
<path d="M164,390.2c13.9-12,35.4-9.8,48,4.9l228,264.4c12.6,14.7,11.6,36.2-2.2,48.2l0,0c-13.9,12-35.4,9.8-48-4.9l-228-264.4
	C149.1,423.7,150.1,402.1,164,390.2L164,390.2z"/>
<circle class="st1" cx="300.9" cy="548.9" r="186.9"/>
<g>
	<path class="st2" d="M-129.1,848.4c0-285,0-569.9,0-854.9c278.5,0,556.9,0,835.4,0c0,285,0,569.9,0,854.9
		C427.9,848.4,149.4,848.4-129.1,848.4z M331.1,572.4c0-2.7,0.1-5.3,0.1-8c8.2-2.9,16.4-5.5,24.5-8.6c32.3-12.4,57.1-33,74.3-63.6
		c8.2-14.5,11-31.1,20.2-44.9c12,0.4,24.3,1.3,34.7-5.9c33.2-23,26.7-80.8-7.6-94.4c0.7-5.5,1.4-11,2.2-16.5
		c6.9-48,8.8-95.8-0.8-143.8c-1.2-6.2-3.3-11.5-7.9-15.7c-77.2-70.1-166.1-95.7-267-65.4c-62,18.6-111.2,71.3-110.7,148.1
		c0.2,29.2-0.2,58.4,1.1,87.5c0.9,7.9-6.5,9.3-10.5,13c-17.7,15.8-22.3,38.4-12.6,64.4c7.6,20.4,20.7,28.7,45,28.5
		c7.4-0.5,9.6,3.4,11.7,10.3c12.6,41.8,36.9,74.2,77.4,92.9c0.4,5.6,4.4,5.5,8.5,5.4c1.8,0.1,3.6,0.2,5.4,0.3
		c3.9,9,12.1,7.6,19.5,8.2l0,0c0,20.8,0,20.9-19.4,22.2c-4.3,0.3-4.2,2.2-2.8,5.2c-4,1.2-7.9,2.5-11.9,3.6
		c-38.3,10.3-74.3,25.6-107,48.3c-17.6,12.2-33.8,26.1-43.6,45.8c-6.6,13.2-5.7,15.6,6.6,23.5c80.3,51.3,167.7,73.8,263,66
		c62.9-5.2,121.2-24,176-55c21-11.9,22.2-17.5,8.9-42.3c-2.2-4-5.3-7.6-8.5-11c-38-39.9-86.2-61.2-138.4-74.9
		c-0.4-5.5-4.5-5.4-8.6-6.8c-6.6-2.2-15.4,0.2-19.5-8C333.1,578,333.6,574.9,331.1,572.4z"/>
	<path class="st3" d="M450.2,447.3c-9.2,13.8-12,30.4-20.2,44.9c-17.3,30.6-42,51.2-74.3,63.6c-8.1,3.1-16.3,5.8-24.5,8.6
		c-30,4.2-60,2.6-89.9-0.1c-0.9,0-1.8,0-2.7,0l0,0c-4.6-7.4-12.3-7.3-19.5-8.2c-1.8-0.1-3.6-0.2-5.4-0.3c-0.4-5.6-4.4-5.5-8.5-5.4
		c-40.5-18.7-64.8-51.1-77.4-92.9c-2.1-6.9-4.3-10.8-11.7-10.3c7-5.5,5.8-12.3,4.1-19.9c-3.5-15.4-8.3-30.8-4.2-46.9
		c17-19.2,22.7-43,21.8-67.2c-1.3-34.7,15.6-55.7,43.8-71c6.9-3.7,13.5-4.6,21.3-2.6c57,14.8,114.5,26.4,173.8,27.7
		c36.7,0.8,57.9,19.1,68.3,54.4c2.5,8.4,3.9,17.1,5.5,25.8c2.1,11.2,0.9,23.3,8,33.4C459.3,403.6,454.5,425.4,450.2,447.3z"/>
	<path class="st4" d="M458.5,381.1c-7.1-10.1-5.9-22.2-8-33.4c-1.7-8.6-3-17.3-5.5-25.8c-10.4-35.3-31.6-53.6-68.3-54.4
		c-59.3-1.4-116.8-12.9-173.8-27.7c-7.8-2-14.4-1.2-21.3,2.6c-28.2,15.3-45.2,36.3-43.8,71c0.9,24.1-4.8,47.9-21.8,67.2
		c-8.6,2.1-12.3-2.5-15.2-9.8c-3.7-9.5-3.5-19.7-6.6-29.3c-1.2-29.2-0.9-58.4-1.1-87.5c-0.5-76.8,48.7-129.5,110.7-148.1
		c100.9-30.3,189.8-4.6,267,65.4c4.6,4.2,6.7,9.4,7.9,15.7c9.6,47.9,7.7,95.8,0.8,143.8c-0.8,5.5-1.5,11-2.2,16.5
		c-2.5,7.8-4.7,15.8-7.7,23.5C467.6,375.5,465.9,381.5,458.5,381.1z"/>
	<path class="st5" d="M361.4,595.9c52.2,13.7,100.4,35,138.4,74.9c3.2,3.3,6.3,6.9,8.5,11c13.4,24.8,12.2,30.4-8.9,42.3
		c-54.9,31-113.1,49.8-176,55c-95.3,7.8-182.7-14.7-263-66c-12.4-7.9-13.3-10.3-6.6-23.5c9.8-19.7,26-33.5,43.6-45.8
		c32.7-22.7,68.7-38,107-48.3c4-1.1,8-2.4,11.9-3.6c1.4,1.1,5.4-0.6,3.8,3.5c-9.1,24.3-6,28.7,13.1,46.8
		c22.2,21.1,48.6,21.7,75.9,21.8c3.2,0,7,0.4,8.6-3.1c3.4-7.4,10.7-10,16.9-13.7C354.1,635.4,365.4,619.8,361.4,595.9z"/>
	<path class="st6" d="M361.4,595.9c4,23.9-7.3,39.6-26.9,51.2c-6.2,3.7-13.5,6.3-16.9,13.7c-1.6,3.5-5.4,3.1-8.6,3.1
		c-27.3-0.1-53.6-0.7-75.9-21.8c-19.1-18.1-22.2-22.4-13.1-46.8c1.5-4.1-2.4-2.4-3.8-3.5c-1.4-3-1.5-4.9,2.8-5.2
		c19.4-1.3,19.4-1.4,19.4-22.2c0.9,0,1.8,0,2.7,0c-2.4,34.3,15.9,58.2,39.3,79.8c8.3,7.7,15.4,6.8,22.5-0.9
		c16.1-17.5,25.3-38.2,27.7-61.9c0.8-0.1,1.6-0.2,2.4-0.2c4.2,8.2,12.9,5.8,19.5,8C356.9,590.4,361,590.4,361.4,595.9z"/>
	<path class="st7" d="M330.8,581.3c-2.4,23.7-11.6,44.4-27.7,61.9c-7.1,7.7-14.2,8.6-22.5,0.9c-23.5-21.6-41.8-45.5-39.3-79.8
		c30,2.7,60,4.3,89.9,0.1c0,2.7-0.1,5.3-0.1,8C331,575.4,330.9,578.3,330.8,581.3z"/>
	<path class="st7" d="M458.5,381.1c7.4,0.4,9.1-5.5,11-10.5c3-7.7,5.2-15.6,7.7-23.5c34.3,13.6,40.8,71.4,7.6,94.4
		c-10.4,7.2-22.7,6.3-34.7,5.9C454.5,425.4,459.3,403.6,458.5,381.1z"/>
	<path class="st7" d="M94.1,341.4c3.1,9.6,2.9,19.8,6.6,29.3c2.9,7.3,6.6,12,15.2,9.8c-4.1,16.1,0.6,31.5,4.2,46.9
		c1.7,7.6,3,14.4-4.1,19.9c-24.3,0.1-37.4-8.1-45-28.5c-9.7-26-5-48.6,12.6-64.4C87.7,350.7,95.1,349.2,94.1,341.4z"/>
	<path class="st6" d="M218.9,556.2c7.3,0.9,15,0.8,19.5,8.2C231.1,563.8,222.8,565.3,218.9,556.2z"/>
	<path class="st6" d="M205.1,550.5c4.1-0.2,8.1-0.2,8.5,5.4C209.5,556.1,205.5,556.2,205.1,550.5z"/>
	<path class="st3" d="M330.8,581.3c0.1-2.9,0.2-5.9,0.3-8.8c2.5,2.4,2.1,5.6,2.1,8.6C332.4,581.1,331.6,581.2,330.8,581.3z"/>
</g>
</svg>
