<?xml version="1.0" standalone="no"?><!DOCTYPE svg PUBLIC "-//W3C//DTD SVG 1.1//EN" "http://www.w3.org/Graphics/SVG/1.1/DTD/svg11.dtd"><svg t="1571194003712" class="icon" viewBox="0 0 1081 1024" version="1.1" xmlns="http://www.w3.org/2000/svg" p-id="32012" xmlns:xlink="http://www.w3.org/1999/xlink" width="211.1328125" height="200"><defs><style type="text/css"></style></defs><path d="M1065.24764 741.237933h-65.628044c-7.806562 0-14.11164 3.91191-14.111641 8.629213s6.28782 8.629213 14.111641 8.629214h65.633797c7.841079 0 14.128899-3.91191 14.128899-8.629214 0-4.83236-6.28782-8.629213-14.128899-8.629213z" fill="#52CC90" p-id="32013"></path><path d="M895.321169 926.121708a8.111461 8.111461 0 0 0-8.065439 8.019416c0 4.372135 3.670292 8.019416 8.065439 8.019415h17.603595a8.111461 8.111461 0 0 0 8.065438-8.019415 8.111461 8.111461 0 0 0-8.065438-8.019416h-17.603595z m177.29582 0.172584h-120.279731a8.111461 8.111461 0 0 0-8.065438 8.019416c0 4.372135 3.664539 8.019416 8.065438 8.019416h120.279731a8.111461 8.111461 0 0 0 8.065438-8.019416 8.111461 8.111461 0 0 0-8.065438-8.019416z m-301.964944 77.824h-34.476584a8.111461 8.111461 0 0 0-8.065439 8.019416c0 4.372135 3.664539 8.013663 8.065439 8.013663h34.470831a8.111461 8.111461 0 0 0 8.065438-8.013663 8.111461 8.111461 0 0 0-8.065438-8.019416z m178.210517 0H805.105618a8.111461 8.111461 0 0 0-8.071191 8.019416c0 4.372135 3.670292 8.013663 8.071191 8.013663h143.745438a8.111461 8.111461 0 0 0 8.065438-8.013663c0-4.372135-4.400899-8.019416-8.065438-8.019416z m-534.24036-158.363326h-8.801798a8.111461 8.111461 0 0 0-8.065438 8.019416c0 4.372135 3.664539 8.019416 8.065438 8.019416h8.801798a8.111461 8.111461 0 0 0 8.065438-8.019416 8.111461 8.111461 0 0 0-8.065438-8.019416z m-36.961798 2.577259h-183.342022c-2.933933-17.488539-18.339955-31.341303-36.674157-31.341304s-33.734472 13.847011-36.668405 31.341304H14.629393a8.111461 8.111461 0 0 0-8.065438 8.019415c0 4.372135 3.664539 8.019416 8.065438 8.019416h112.944899a8.111461 8.111461 0 0 0 8.065438-8.019416v-1.45546c0-12.391551 9.538157-21.866427 22.004495-21.866427 11.73573 0 21.998742 9.474876 21.998741 21.860674 0 0.73636-0.730607 1.461213-0.730606 2.186067 0 4.372135 3.664539 8.025169 8.065438 8.025169h190.682606a8.111461 8.111461 0 0 0 8.071192-8.019416c0-4.372135-4.400899-8.74427-8.071192-8.744269v-0.005753z" fill="#52CC90" p-id="32014"></path><path d="M153.254831 932.047101h701.842697c5.752809 0 8.629213 2.876404 8.629214 8.629214s-2.876404 8.629213-8.629214 8.629213h-701.842697c-5.752809 0-8.629213-2.876404-8.629213-8.629213s2.876404-8.629213 8.629213-8.629214z" fill="#52CC90" p-id="32015"></path><path d="M989.523416 313.637393a21.285393 21.285393 0 0 1 21.480988 21.480989 21.285393 21.285393 0 0 1-21.480988 21.475236 21.285393 21.285393 0 0 1-21.475236-21.475236 21.285393 21.285393 0 0 1 21.475236-21.480989z m0 32.037394c6.190022 0 10.924584-4.734562 10.562157-10.556405a10.562157 10.562157 0 0 0-21.118562 0c0 5.827596 4.723056 10.550652 10.556405 10.556405zM798.397843 0.920449a27.814831 27.814831 0 0 1 28.033438 28.033439 28.044944 28.044944 0 0 1-28.033438 28.027685c-15.290966 0-28.027685-12.742472-28.027686-28.027685 0-15.290966 12.380045-28.033438 28.027686-28.033439z m0 45.142293a17.085843 17.085843 0 0 0 17.114606-17.108854 17.085843 17.085843 0 0 0-17.114606-17.114607 17.085843 17.085843 0 0 0-17.108854 17.114607 17.085843 17.085843 0 0 0 17.108854 17.108854zM172.032 72.842067h8.74427v8.663731a8.053933 8.053933 0 0 0 8.013663 7.938876c4.372135 0 8.019416-3.612764 8.019415-7.938876v-8.663731h8.74427c4.372135 0 8.013663-3.607011 8.013663-7.938876a8.053933 8.053933 0 0 0-8.019416-7.938876h-8.744269V48.300584c0-4.331865-3.641528-7.938876-8.013663-7.938876s-8.013663 3.607011-8.013663 7.938876v8.663731h-8.74427c-4.372135 0-8.013663 3.607011-8.013663 7.938876 0 4.331865 3.641528 7.938876 8.013663 7.938876zM25.582742 417.861034c0 4.331865 3.641528 7.938876 8.013662 7.938876a8.053933 8.053933 0 0 0 8.019416-7.938876V401.258427h16.757933c4.372135 0 8.013663-3.607011 8.013663-7.938876a8.053933 8.053933 0 0 0-8.013663-7.938877H41.61582v-16.602607a8.053933 8.053933 0 0 0-8.019416-7.938876c-4.372135 0-8.013663 3.607011-8.013662 7.938876v16.602607H8.824809c-4.372135 0-8.013663 3.607011-8.013663 7.938877 0 4.331865 3.641528 7.938876 8.013663 7.938876h16.757933v16.602607z" fill="#52CC90" p-id="32016"></path><path d="M356.674157 224.359551a28.764045 28.764045 0 0 0-28.764045 28.764045v477.483146a28.764045 28.764045 0 0 0 28.764045 28.764045h373.932585a28.764045 28.764045 0 0 0 28.764045-28.764045V253.123596a28.764045 28.764045 0 0 0-28.764045-28.764045H356.674157z m0-17.258427h373.932585a46.022472 46.022472 0 0 1 46.022471 46.022472v477.483146a46.022472 46.022472 0 0 1-46.022471 46.022471H356.674157a46.022472 46.022472 0 0 1-46.022472-46.022471V253.123596a46.022472 46.022472 0 0 1 46.022472-46.022472z" fill="#979797" p-id="32017"></path><path d="M647.191011 218.606742h17.258427v163.678921a14.382022 14.382022 0 0 1-20.29591 13.110652l-41.79991-18.857708a2.876404 2.876404 0 0 0-2.370157 0l-41.79991 18.857708a14.382022 14.382022 0 0 1-20.295911-13.116405V218.606742h17.258427v159.226247l37.738427-17.028315a20.134831 20.134831 0 0 1 16.56809 0l37.738427 17.028315V218.606742zM408.368899 209.977528h17.258427v552.729888h-17.258427z" fill="#979797" p-id="32018"></path></svg>