<?xml version="1.0" standalone="no"?><!DOCTYPE svg PUBLIC "-//W3C//DTD SVG 1.1//EN" "http://www.w3.org/Graphics/SVG/1.1/DTD/svg11.dtd"><svg t="1566403958408" class="icon" viewBox="0 0 1024 1024" version="1.1" xmlns="http://www.w3.org/2000/svg" p-id="1791" xmlns:xlink="http://www.w3.org/1999/xlink" width="200" height="200"><defs><style type="text/css"></style></defs><path d="M686.1 593.8h3.5v3.5h-3.5zM686.1 600.8h3.5v3.5h-3.5z" fill="#C5DDFB" p-id="1792"></path><path d="M686.1 593.8h3.5v3.5h-3.5zM686.1 600.8h3.5v3.5h-3.5z" fill="#2589FF" p-id="1793"></path><path d="M158.1 418c0-31.4 12.7-61.6 35.4-83.8 22.7-22.2 53.5-34.7 85.6-34.7h559.7c7.3 0 14.5 0.7 21.6 1.9-5.7-18.2-15.9-34.9-29.9-48.7-22.7-22.2-53.4-34.7-85.5-34.7h-22.5l-40.1 65.1-67.1-0.1v0.1H485.9l-0.1-0.2-66.8 0.1-39.9-64.9H185.3c-32.1 0-62.9 12.4-85.6 34.7C77 275 64.3 305.2 64.3 336.6v401.2c0 31.4 12.8 61.5 35.5 83.7 17.5 17.1 39.8 28.4 63.8 32.7-3.5-11.2-5.4-23-5.4-34.9V418z" fill="#FFC088" p-id="1794"></path><path d="M615.3 283.2l40.2-65.1H446l39.8 65zM377.6 178.1L331 102c-7.8-13.7-26-18.8-40.5-11.4-13.4 8.6-17.6 25.5-9.7 38.8l44.3 72.1h46.1c-1.5-8.2 0.8-16.8 6.4-23.4zM632.9 129.6c7.7-13.4 3.5-30-9.7-38.7-7-3.6-15.2-4.4-22.8-2.2-7.6 2.1-14 7.1-17.7 13.7l-61.3 99.3 67.1 0.1 44.4-72.2z" fill="#FFC088" p-id="1795"></path><path d="M521.4 201.7h0.1l-85.6-0.1 0.1 0.1z" fill="#FFC088" p-id="1796"></path><path d="M924.3 334.3c-17.5-17.2-39.9-28.5-63.9-32.8-7.1-1.3-14.3-1.9-21.6-1.9H279.1c-32.1 0-62.9 12.4-85.6 34.7-22.7 22.2-35.4 52.4-35.4 83.8v401.2c0 12 1.9 23.7 5.4 34.9 5.8 18.3 16 35 30.1 48.8 22.7 22.2 53.5 34.7 85.6 34.6h531.4c-0.1 0-0.1-0.1-0.1-0.1l-12.6-0.1c-74.8-64.4-102.7-171.2-69.6-266.5 33.1-95.3 120-158.5 217-157.8l-0.1 13.7-2.1 289.3c-0.7 67.5-53.4 121.9-118.1 121.4l-9.8-0.1 0.1 0.1h27.3c64.6 0 117-54.8 117-122.3V418c0.1-31.3-12.6-61.5-35.3-83.7zM728.2 658.2L505.5 786.1c-6 3.5-13.5 3.5-19.5 0.1s-9.8-9.7-9.8-16.6V513.4c0-6.9 3.8-13.2 9.8-16.6 6-3.4 13.5-3.4 19.5 0.1l222.7 128c6 3.4 9.8 9.8 9.8 16.6 0 6.9-3.8 13.2-9.8 16.7zM485.8 283.1l-39.8-65-10-16.4-0.1-0.1-11.1-18.1c-7.8-13.7-26-18.8-40.5-11.4-2.6 1.7-4.9 3.8-6.8 6-5.6 6.6-7.9 15.2-6.4 23.4 0.6 3.2 1.7 6.4 3.5 9.4l4.4 7.2 40 64.9 66.8 0.1z" fill="#FF7E00" p-id="1797"></path><path d="M485.9 283.2h129.4l-129.5-0.1zM682.4 283.2l40.1-65.1 4.3-7c7.7-13.4 3.5-30-9.7-38.7-7-3.6-15.2-4.4-22.8-2.2-7.6 2.1-14 7.1-17.7 13.7l-21.1 34.2-40.2 65.1h67.1z" fill="#FF7E00" p-id="1798"></path><path d="M942.9 816.1l2.1-289.3 0.1-13.7c-97-0.7-183.9 62.5-217 157.8-33.1 95.3-5.2 202 69.6 266.5l12.6 0.1h4.9l9.8 0.1c64.7 0.4 117.4-54 117.9-121.5z" fill="#FD973F" p-id="1799"></path><path d="M728.2 624.9l-222.7-128c-6-3.5-13.5-3.5-19.5-0.1s-9.8 9.7-9.8 16.6v256.2c0 6.9 3.8 13.2 9.8 16.6 6 3.4 13.5 3.4 19.5-0.1l222.7-127.9c6-3.4 9.8-9.8 9.8-16.7 0-6.9-3.8-13.2-9.8-16.6z" fill="#FFFFFF" p-id="1800"></path></svg>